<svg width="927" height="200" viewBox="0 0 927 200" fill="none" xmlns="http://www.w3.org/2000/svg">
<path d="M26.6238 67.5592C28.4996 61.2408 34.0989 56.749 40.6734 56.2887L125.195 50.3704C131.77 49.91 137.939 53.5778 140.675 59.5732L177.886 141.125C182.451 151.13 175.64 162.625 164.671 163.42C109.066 167.454 70.8129 169.692 17.5339 173.549C6.49603 174.348 -1.96946 163.872 1.18034 153.263L26.6238 67.5592Z" fill="#5A58F2"/>
<path d="M291.193 115.528C288.457 121.523 282.288 125.191 275.714 124.73L191.192 118.812C184.617 118.352 179.018 113.86 177.142 107.542L151.627 21.5977C148.497 11.0542 156.84 0.62027 167.813 1.36086C223.437 5.11513 261.629 8.2299 314.925 11.8356C325.967 12.5826 332.894 24.1364 328.3 34.2039L291.193 115.528Z" fill="#5A58F2"/>
<path d="M869.051 157.252C860.681 157.252 853.083 154.934 846.258 150.298C839.432 145.662 833.959 139.352 829.839 131.368C825.718 123.384 823.657 114.305 823.657 104.131C823.657 93.958 825.718 84.8793 829.839 76.8951C833.959 68.911 839.561 62.6653 846.644 58.1581C853.727 53.6509 861.711 51.3973 870.596 51.3973C875.748 51.3973 880.448 52.17 884.697 53.7153C888.947 55.1319 892.682 57.1923 895.901 59.8966C899.12 62.6009 901.76 65.6916 903.821 69.1685C905.356 71.6067 906.543 74.1715 907.381 76.863C907.881 78.4666 906.385 79.8851 904.759 79.4636V79.4636C903.752 79.2024 903.048 78.293 903.048 77.2521V58.3796C903.048 55.6969 905.223 53.5222 907.906 53.5222H922.143C924.826 53.5222 927.001 55.6969 927.001 58.3796V150.463C927.001 153.145 924.826 155.32 922.143 155.32H907.712C905.03 155.32 902.855 153.145 902.855 150.463V132.983C902.855 131.827 903.688 130.838 904.828 130.641V130.641C906.529 130.348 907.945 131.908 907.285 133.503C906.341 135.781 905.058 138.032 903.435 140.253C901.117 143.473 898.155 146.37 894.549 148.946C891.072 151.392 887.144 153.388 882.766 154.934C878.516 156.479 873.945 157.252 869.051 157.252ZM875.619 136.197C881.156 136.197 886.05 134.845 890.299 132.14C894.549 129.436 897.833 125.701 900.151 120.937C902.597 116.043 903.821 110.441 903.821 104.131C903.821 97.9501 902.597 92.4771 900.151 87.7124C897.833 82.9476 894.549 79.2131 890.299 76.5088C886.05 73.8045 881.156 72.4523 875.619 72.4523C870.081 72.4523 865.188 73.8045 860.938 76.5088C856.817 79.2131 853.598 82.9476 851.28 87.7124C848.962 92.4771 847.803 97.9501 847.803 104.131C847.803 110.441 848.962 116.043 851.28 120.937C853.598 125.701 856.817 129.436 860.938 132.14C865.188 134.845 870.081 136.197 875.619 136.197Z" fill="#272728"/>
<path d="M720.188 155.32C717.505 155.32 715.33 153.145 715.33 150.463V58.3796C715.33 55.6969 717.505 53.5222 720.188 53.5222H733.742C736.389 53.5222 738.549 55.6425 738.598 58.2897L738.877 73.3231C738.889 73.9731 738.532 74.5741 737.955 74.8748V74.8748C736.626 75.5685 735.178 74.3581 735.789 72.9885C737.211 69.8037 739.277 66.8563 741.987 64.1462C745.721 60.2829 750.164 57.1923 755.315 54.8743C760.466 52.5563 765.746 51.3973 771.155 51.3973C778.881 51.3973 785.32 52.9427 790.471 56.0333C795.751 59.1239 799.679 63.7599 802.254 69.9412C804.959 76.1225 806.311 83.8491 806.311 93.121V150.463C806.311 153.145 804.136 155.32 801.453 155.32H787.409C784.726 155.32 782.552 153.145 782.552 150.463V94.8595C782.552 89.7084 781.843 85.4588 780.427 82.1106C779.01 78.6336 776.821 76.1225 773.859 74.5772C770.897 72.9031 767.291 72.1304 763.042 72.2592C759.565 72.2592 756.345 72.8387 753.384 73.9977C750.551 75.0279 748.039 76.5732 745.85 78.6336C743.79 80.5653 742.116 82.8189 740.828 85.3944C739.669 87.9699 739.089 90.803 739.089 93.8937V150.463C739.089 153.145 736.915 155.32 734.232 155.32H727.306C724.988 155.32 722.799 155.32 720.739 155.32C720.554 155.32 720.37 155.32 720.188 155.32Z" fill="#272728"/>
<path d="M640.417 199.748C632.819 199.748 625.222 198.589 617.624 196.271C611.73 194.442 606.718 192.172 602.588 189.46C600.699 188.22 600.163 185.752 601.147 183.717L605.458 174.801C606.768 172.091 610.206 171.224 612.862 172.644C614.195 173.357 615.589 174.021 617.044 174.637C620.393 176.053 623.934 177.148 627.668 177.92C631.532 178.693 635.331 179.079 639.065 179.079C645.89 179.079 651.556 177.985 656.064 175.796C660.7 173.735 664.177 170.516 666.495 166.137C668.813 161.888 669.972 156.544 669.972 150.105V133.742C669.972 132.6 671.12 131.814 672.185 132.228V132.228C672.917 132.513 673.348 133.282 673.142 134.04C672.188 137.552 670.166 140.91 667.074 144.117C663.597 147.722 659.219 150.684 653.939 153.002C648.659 155.191 643.25 156.286 637.713 156.286C628.055 156.286 619.491 154.032 612.022 149.525C604.682 145.018 598.822 138.901 594.444 131.175C590.194 123.319 588.07 114.305 588.07 104.131C588.07 93.958 590.194 84.9437 594.444 77.0883C598.694 69.1041 604.489 62.8585 611.829 58.3513C619.298 53.7153 627.668 51.3973 636.94 51.3973C640.804 51.3973 644.538 51.8481 648.144 52.7495C651.75 53.6509 655.033 54.9387 657.995 56.6128C661.086 58.2869 663.855 60.1542 666.301 62.2146C668.748 64.275 670.744 66.4642 672.29 68.7822C673.371 70.4046 674.169 71.9955 674.683 73.5549C675.05 74.6686 674.346 75.8019 673.225 76.1467V76.1467C671.715 76.6113 670.191 75.4667 670.217 73.8871L670.473 58.3C670.516 55.6487 672.678 53.5222 675.33 53.5222H689.067C691.749 53.5222 693.924 55.6969 693.924 58.3796V148.366C693.924 156.608 692.701 163.884 690.254 170.194C687.807 176.504 684.266 181.848 679.63 186.227C674.994 190.734 669.392 194.082 662.824 196.271C656.257 198.589 648.788 199.748 640.417 199.748ZM641.383 136.004C647.178 136.004 652.265 134.651 656.643 131.947C661.15 129.243 664.627 125.508 667.074 120.744C669.521 115.979 670.744 110.506 670.744 104.325C670.744 98.0145 669.456 92.4771 666.881 87.7124C664.434 82.8189 661.022 79.0199 656.643 76.3156C652.265 73.6113 647.178 72.2592 641.383 72.2592C635.588 72.2592 630.501 73.6757 626.123 76.5088C621.745 79.2131 618.268 83.012 615.692 87.9055C613.245 92.6703 612.022 98.1433 612.022 104.325C612.022 110.377 613.245 115.85 615.692 120.744C618.268 125.508 621.745 129.243 626.123 131.947C630.501 134.651 635.588 136.004 641.383 136.004Z" fill="#272728"/>
<path d="M523.079 157.252C512.906 157.252 503.827 154.998 495.843 150.491C487.859 145.855 481.549 139.545 476.913 131.561C472.277 123.577 469.959 114.498 469.959 104.325C469.959 94.1512 472.277 85.0724 476.913 77.0883C481.549 69.1041 487.859 62.8585 495.843 58.3513C503.827 53.7153 512.906 51.3973 523.079 51.3973C533.124 51.3973 542.138 53.7153 550.122 58.3513C558.107 62.8585 564.352 69.1041 568.859 77.0883C573.495 85.0724 575.813 94.1512 575.813 104.325C575.813 114.498 573.495 123.577 568.859 131.561C564.352 139.545 558.107 145.855 550.122 150.491C542.138 154.998 533.124 157.252 523.079 157.252ZM523.079 136.197C528.617 136.197 533.51 134.78 537.76 131.947C542.138 129.114 545.551 125.315 547.998 120.55C550.573 115.786 551.796 110.377 551.668 104.325C551.796 98.1433 550.573 92.6703 547.998 87.9055C545.551 83.1408 542.138 79.4063 537.76 76.702C533.51 73.8689 528.617 72.4523 523.079 72.4523C517.542 72.4523 512.52 73.8689 508.012 76.702C503.634 79.4063 500.221 83.2052 497.775 88.0987C495.328 92.8634 494.104 98.2721 494.104 104.325C494.104 110.377 495.328 115.786 497.775 120.55C500.221 125.315 503.634 129.114 508.012 131.947C512.52 134.78 517.542 136.197 523.079 136.197Z" fill="#272728"/>
<path d="M412.172 157.252C402.385 157.252 393.435 155.578 385.322 152.23C377.209 148.881 370.19 144.117 364.267 137.935C358.343 131.625 353.707 124.221 350.359 115.721C347.139 107.093 345.53 97.6926 345.53 87.5193C345.53 77.7323 347.268 68.6535 350.745 60.283C354.222 51.9125 359.051 44.5723 365.232 38.2622C371.414 31.9522 378.625 27.0586 386.867 23.5817C395.109 20.1047 404.059 18.3662 413.717 18.3662C420.285 18.3662 426.659 19.332 432.84 21.2637C439.022 23.1953 444.688 25.8997 449.839 29.3766C453.764 31.9282 457.204 34.8163 460.157 38.041C461.749 39.7797 461.622 42.4299 460.033 44.1719L450.241 54.9084C448.35 56.9819 445.113 57.0081 443.013 55.1464C440.833 53.2136 438.601 51.5132 436.317 50.0453C432.84 47.5985 429.17 45.7957 425.307 44.6367C421.572 43.3489 417.709 42.705 413.717 42.705C407.793 42.705 402.191 43.7996 396.912 45.9888C391.76 48.178 387.253 51.2687 383.39 55.2607C379.655 59.2528 376.694 64.0175 374.504 69.5549C372.315 74.9636 371.221 81.0161 371.221 87.7124C371.221 94.5376 372.251 100.719 374.311 106.256C376.5 111.794 379.527 116.558 383.39 120.551C387.382 124.543 392.082 127.633 397.491 129.822C403.028 131.883 409.081 132.913 415.649 132.913C419.898 132.913 424.019 132.334 428.011 131.175C432.003 130.016 435.673 128.406 439.022 126.345C440.731 125.269 442.363 124.114 443.917 122.882C446.369 120.938 450.067 121.355 451.718 124.012L458.935 135.628C460.07 137.455 459.888 139.834 458.303 141.288C455.605 143.762 452.333 146.058 448.487 148.173C443.336 151.006 437.541 153.26 431.102 154.934C424.792 156.479 418.482 157.252 412.172 157.252Z" fill="#272728"/>
</svg>
