<svg xmlns="http://www.w3.org/2000/svg" width="2134" height="810" viewBox="0 0 2134 810" version="1.1"><path d="" stroke="none" fill="#080404" fill-rule="evenodd"/><path d="M 247.206 26.048 C 245.944 26.554, 244.220 28.623, 243.375 30.646 C 234.712 51.378, 29.543 587.434, 29.230 590.154 C 28.912 592.909, 29.324 594.324, 30.904 595.904 C 32.981 597.981, 33.495 598, 88 598 C 139.862 598, 143.104 597.896, 144.821 596.179 C 146.445 594.555, 153.254 575.456, 173.317 516.253 L 179.500 498.005 305.423 498.253 L 431.345 498.500 439.971 523.500 C 444.714 537.250, 452.142 558.818, 456.478 571.430 C 460.813 584.041, 465.179 595.179, 466.180 596.180 C 467.897 597.897, 471.174 598, 523.927 598 L 579.855 598 581.927 595.365 C 583.067 593.916, 584 592.162, 584 591.468 C 584 590.773, 535.188 463.821, 475.530 309.352 C 400.027 113.859, 366.409 27.968, 364.919 26.750 C 362.934 25.127, 358.655 25.005, 306.139 25.063 C 274.121 25.099, 248.503 25.527, 247.206 26.048 M 1037 52 C 1035.057 53.943, 1035 55.333, 1035 100.500 L 1035 147 1007.223 147 C 983.700 147, 979.105 147.238, 977.223 148.557 L 975 150.113 975 196.984 L 975 243.855 977.635 245.927 C 980.155 247.910, 981.464 248, 1007.635 248 L 1035 248 1035 348.949 C 1035 434.124, 1035.241 451.742, 1036.542 461.699 C 1041.490 499.576, 1054.305 527.415, 1077.445 550.555 C 1109.186 582.296, 1156.410 597.984, 1220.250 597.997 C 1236.669 598, 1238.150 597.850, 1240 596 C 1241.942 594.058, 1242 592.667, 1242 547.655 C 1242 501.838, 1241.976 501.288, 1239.899 499.405 C 1238.053 497.731, 1235.593 497.428, 1219.649 496.911 C 1203.690 496.394, 1200.534 496.005, 1193.500 493.687 C 1189.100 492.237, 1182.606 489.352, 1179.070 487.276 C 1170.844 482.445, 1160.553 472.154, 1155.726 463.930 C 1150.853 455.629, 1146.479 441.870, 1145.099 430.500 C 1144.386 424.631, 1144.005 391.332, 1144.003 334.778 L 1144 248.057 1191.589 247.778 L 1239.178 247.500 1241.089 245.139 C 1242.908 242.892, 1243 240.579, 1243 197.064 L 1243 151.349 1240.686 149.174 C 1238.377 147.005, 1238.256 147, 1191.186 147 L 1144 147 1144 100.674 L 1144 54.349 1141.686 52.174 C 1139.373 50.002, 1139.336 50, 1089.186 50 C 1040.333 50, 1038.947 50.053, 1037 52 M 302.703 138.223 C 295.167 159.512, 215 394.297, 215 395.078 C 215 395.634, 251.009 396, 305.617 396 C 391.428 396, 396.209 395.907, 395.771 394.250 C 395.119 391.783, 305.844 131.561, 305.533 131.223 C 305.393 131.070, 304.120 134.220, 302.703 138.223 M 759.170 138.101 C 706.920 141.860, 657.687 161.202, 619.968 192.787 C 576.517 229.173, 549.056 280.642, 540.889 341 C 539.259 353.045, 539.234 388.545, 540.847 401 C 546.922 447.928, 564.510 489.237, 592.814 523.058 C 643.558 583.693, 726.652 613.118, 816.905 602.412 C 862.905 596.955, 907.314 579.165, 943.278 551.788 C 956.075 542.047, 964 534.166, 964 531.181 C 964 528.491, 929.229 463.265, 925.655 459.250 C 922.185 455.353, 918.442 456.273, 910 463.096 C 897.700 473.037, 882.370 482.756, 867.500 490.040 C 851.197 498.025, 840.931 501.741, 824.421 505.633 C 813.295 508.255, 811.067 508.443, 791 508.445 C 771.179 508.446, 768.622 508.238, 758.253 505.779 C 704.770 493.092, 667.763 454.771, 655.800 399.688 C 652.562 384.780, 652.591 355.106, 655.858 340 C 660.217 319.847, 666.109 305.535, 676.426 290.038 C 696.677 259.618, 727.461 240.363, 765.491 234.329 C 780.194 231.996, 806.758 232.957, 821 236.337 C 847.543 242.637, 872.543 254.836, 893.877 271.899 C 901.024 277.615, 904.466 278.327, 907.661 274.750 C 911.130 270.867, 950.901 208.244, 951.556 205.634 C 952.056 203.641, 951.330 202.228, 947.886 198.493 C 933.177 182.535, 900.198 162.388, 872.500 152.438 C 838.426 140.197, 799.127 135.226, 759.170 138.101 M 1258.904 149.096 C 1257.327 150.673, 1256.911 152.096, 1257.223 154.846 C 1257.452 156.856, 1298.894 257.329, 1349.318 378.121 L 1440.997 597.742 1436.009 612.375 C 1427.985 635.916, 1422.065 645.908, 1408.347 659.069 C 1395.749 671.155, 1381.306 679.279, 1365.818 682.992 C 1358.444 684.760, 1354.007 684.987, 1326.705 684.993 L 1295.909 685 1293.455 687.455 L 1291 689.909 1291 735.500 L 1291 781.091 1293.455 783.545 L 1295.909 786 1328.994 786 C 1363.926 786, 1375.850 785.188, 1390.500 781.814 C 1421.527 774.667, 1447.773 759.459, 1471.515 734.872 C 1487.654 718.158, 1499.294 701.217, 1509.559 679.500 C 1512.419 673.450, 1556.716 559.825, 1607.997 427 C 1659.277 294.175, 1701.519 185.192, 1701.867 184.816 C 1702.587 184.038, 1821.558 366.925, 1821.393 368.557 C 1821.334 369.141, 1788.953 418.642, 1749.436 478.559 C 1701.645 551.020, 1677.455 588.556, 1677.195 590.652 C 1676.918 592.888, 1677.414 594.414, 1678.902 595.902 C 1680.983 597.983, 1681.457 598, 1737.309 598 C 1780.830 598, 1793.984 597.716, 1795.230 596.750 C 1797.794 594.762, 1882.123 457.268, 1886 448.755 C 1887.925 444.527, 1889.725 441.074, 1890 441.080 C 1890.275 441.086, 1892.126 444.558, 1894.113 448.795 C 1898.307 457.736, 1978.171 592.396, 1981.270 595.750 L 1983.349 598 2039.452 598 C 2088.611 598, 2095.830 597.807, 2097.777 596.443 C 2103.157 592.675, 2104.821 595.535, 2029.340 478.789 C 1990.477 418.680, 1958.677 368.995, 1958.674 368.377 C 1958.670 367.759, 1989.567 319.765, 2027.333 261.723 C 2065.100 203.682, 2096 155.229, 2096 154.051 C 2096 152.873, 2094.895 150.805, 2093.545 149.455 L 2091.091 147 2033.720 147 L 1976.349 147 1974.290 149.250 C 1972.033 151.717, 1899.250 279.362, 1893.892 290.250 C 1892.065 293.963, 1890.318 297, 1890.008 297 C 1889.699 297, 1887.595 293.288, 1885.334 288.750 C 1878.101 274.237, 1807.008 150.568, 1804.853 148.750 C 1802.906 147.108, 1796.403 147, 1699.500 147 C 1602.598 147, 1596.093 147.108, 1594.142 148.750 C 1592.638 150.016, 1578.262 191.448, 1542.181 298.500 C 1514.745 379.900, 1492.085 447.163, 1491.825 447.974 C 1491.564 448.784, 1489.971 445.634, 1488.285 440.974 C 1481.451 422.089, 1383.671 156.226, 1382.270 152.721 C 1381.439 150.642, 1379.943 148.505, 1378.945 147.971 C 1377.832 147.375, 1354.701 147, 1319.066 147 C 1261.448 147, 1260.984 147.016, 1258.904 149.096" stroke="none" fill="#040404" fill-rule="evenodd"/></svg>