<?xml version="1.0" encoding="UTF-8"?>
<svg xmlns="http://www.w3.org/2000/svg" xmlns:xlink="http://www.w3.org/1999/xlink" width="297pt" height="189pt" viewBox="0 0 297 189" version="1.1">
<g id="surface1">
<path style=" stroke:none;fill-rule:nonzero;fill:rgb(6.459045%,5.915833%,5.220032%);fill-opacity:1;" d="M 157.890625 163.285156 L 161.160156 163.285156 L 161.160156 145.8125 L 157.890625 145.8125 Z M 213.472656 154.269531 C 213.472656 157.65625 210.71875 160.410156 207.328125 160.410156 C 203.941406 160.410156 201.1875 157.65625 201.1875 154.269531 L 201.1875 145.8125 L 197.921875 145.8125 L 197.921875 154.269531 C 197.921875 159.464844 202.140625 163.6875 207.328125 163.6875 C 212.523438 163.6875 216.75 159.464844 216.75 154.269531 L 216.75 145.8125 L 213.472656 145.8125 Z M 187.324219 159.316406 L 173.601562 145.8125 L 169.835938 145.8125 L 169.835938 163.285156 L 173.101562 163.285156 L 173.101562 149.871094 L 186.335938 163.285156 L 190.59375 163.285156 L 190.59375 145.8125 L 187.324219 145.8125 Z M 239.394531 154.269531 C 239.394531 157.65625 236.640625 160.410156 233.253906 160.410156 C 229.867188 160.410156 227.109375 157.65625 227.109375 154.269531 L 227.109375 145.8125 L 223.832031 145.8125 L 223.832031 154.269531 C 223.832031 159.464844 228.058594 163.6875 233.253906 163.6875 C 238.441406 163.6875 242.664062 159.464844 242.664062 154.269531 L 242.664062 145.8125 L 239.394531 145.8125 Z M 271.359375 145.8125 L 263.15625 160.75 L 254.871094 145.8125 L 249.8125 145.8125 L 249.8125 163.285156 L 253.082031 163.285156 L 253.082031 149.316406 L 260.824219 163.285156 L 265.496094 163.285156 L 273.128906 149.386719 L 273.128906 163.285156 L 276.398438 163.285156 L 276.398438 145.8125 Z M 68.652344 154.269531 C 68.652344 157.65625 65.894531 160.410156 62.507812 160.410156 C 59.121094 160.410156 56.367188 157.65625 56.367188 154.269531 L 56.367188 145.8125 L 53.097656 145.8125 L 53.097656 154.269531 C 53.097656 159.464844 57.320312 163.6875 62.507812 163.6875 C 67.699219 163.6875 71.917969 159.464844 71.917969 154.269531 L 71.917969 145.8125 L 68.652344 145.8125 Z M 42.71875 160.667969 L 46.308594 160.667969 L 46.378906 160.476562 C 47.261719 158.035156 47.273438 155.527344 46.417969 153.023438 C 45.117188 149.179688 41.71875 146.25 37.761719 145.5625 C 37.09375 145.441406 36.402344 145.378906 35.714844 145.378906 C 32.6875 145.378906 29.84375 146.554688 27.707031 148.691406 C 25.574219 150.828125 24.398438 153.671875 24.398438 156.707031 C 24.398438 162.832031 29.382812 167.90625 35.515625 168.015625 L 36.015625 168.027344 L 47.042969 168.027344 L 47.042969 164.757812 L 35.675781 164.757812 C 32.417969 164.757812 29.460938 162.828125 28.3125 159.957031 C 27.234375 157.296875 27.5 154.46875 29.039062 152.199219 C 30.542969 149.976562 33.039062 148.648438 35.714844 148.648438 C 36.292969 148.648438 36.894531 148.710938 37.496094 148.839844 C 40.441406 149.472656 42.816406 151.800781 43.539062 154.769531 C 44 156.664062 43.789062 158.558594 42.933594 160.246094 Z M 82.355469 157.398438 L 86.816406 148.691406 L 91.273438 157.398438 Z M 84.621094 145.8125 L 75.695312 163.285156 L 79.359375 163.285156 L 80.6875 160.667969 L 92.949219 160.667969 L 94.273438 163.285156 L 97.945312 163.285156 L 89.019531 145.8125 Z M 121.550781 159.316406 L 107.824219 145.8125 L 104.058594 145.8125 L 104.058594 163.285156 L 107.328125 163.285156 L 107.328125 149.871094 L 120.5625 163.285156 L 124.820312 163.285156 L 124.820312 145.8125 L 121.550781 145.8125 Z M 130.96875 149.082031 L 139.273438 149.082031 L 139.273438 163.285156 L 142.550781 163.285156 L 142.550781 149.082031 L 150.851562 149.082031 L 150.851562 145.8125 L 130.96875 145.8125 L 130.96875 149.082031 "/>
<path style=" stroke:none;fill-rule:nonzero;fill:rgb(6.266785%,5.734253%,5.047607%);fill-opacity:1;" d="M 190.589844 66.730469 C 190.589844 72.222656 189.601562 77.554688 187.644531 82.609375 L 181.449219 82.609375 C 183.0625 47.542969 137.621094 32.246094 117.621094 60.957031 C 114.386719 50.089844 117.9375 37.839844 126.28125 30.402344 C 126.285156 30.402344 126.285156 30.394531 126.285156 30.394531 C 129.324219 27.632812 132.949219 25.488281 136.84375 24.171875 C 163.578125 16.367188 191.039062 39.34375 190.589844 66.730469 "/>
<path style=" stroke:none;fill-rule:nonzero;fill:rgb(6.266785%,5.734253%,5.047607%);fill-opacity:1;" d="M 190.589844 87.644531 L 190.589844 110.867188 L 146.453125 110.867188 C 145.890625 110.867188 145.386719 110.855469 144.867188 110.824219 C 133.410156 110.417969 122.707031 105.65625 114.726562 97.40625 C 97.425781 80.601562 98.769531 49.578125 116.621094 34.222656 C 110.378906 44.167969 109.699219 57.308594 114.882812 67.832031 C 120.613281 79.761719 133.085938 87.671875 146.453125 87.644531 L 190.589844 87.644531 "/>
</g>
</svg>
