<svg xmlns="http://www.w3.org/2000/svg" viewBox="0 0 662.04 165.2">
  <title>Asset 1</title>
  <g>
    <g>
      <path d="M.7,98.7c0-10.1,9.5-17.8,24.1-17.8,7,0,14.4,1.9,18.8,5.8a6.87,6.87,0,0,1,2.5,5.8c0,3.4-1.9,6.7-4.7,6.7-1.8,0-3.3-1.4-5-3.1a19.16,19.16,0,0,0-12.9-5.6c-5.2,0-9,2.5-9,6.7,0,14.1,34.5,12.7,34.5,35.9a19.51,19.51,0,0,1-6,14.6c-4.7,4.6-12.3,6.8-20,6.8-7.5,0-15-2-20.3-6.1A6.68,6.68,0,0,1,0,142.5c0-3.3,1.9-6.7,4.8-6.7,4.1,0,7.4,9.2,19.1,9.2,6.1,0,11.4-3.2,11.4-10.2C35.2,118.9.7,121,.7,98.7" style="fill: #006635"/>
      <path d="M111.9,81.6c1.4,0,1.9.4,1.9,1.8v5.8c0,1.3-.5,1.8-1.9,1.8h-8.8a93.12,93.12,0,0,1-11.3-.4V143c0,7.6,4,6.6,4,8.9,0,1.5-1.8,1.9-8.2,1.9H82.4c-6.5,0-8.2-.4-8.2-1.9,0-2.3,4-1.3,4-8.9V90.6c-2.1.2-5.5.4-11.3.4H58.1c-1.4,0-1.9-.5-1.9-1.8V83.4c0-1.4.5-1.8,1.9-1.8h53.8Z" style="fill: #006635"/>
      <path d="M141.9,142.9c0,7.6,4,6.6,4,8.9,0,1.5-1.8,1.9-8.2,1.9h-5.2c-6.5,0-8.2-.4-8.2-1.9,0-2.3,4-1.3,4-8.9V92.4c0-7.6-4-6.6-4-8.9,0-1.5,1.8-1.9,8.2-1.9h5.2c6.5,0,8.2.4,8.2,1.9,0,2.3-4,1.3-4,8.9Z" style="fill: #006635"/>
      <path d="M181.8,90h-3.9v27.6c16.2,0,21.4-5.3,21.4-14.2,0-10.5-7.2-13.4-17.5-13.4m16.9,33.2,15.6,20.5a23,23,0,0,0,7.4,6.8c.7.5.9.8.9,1.4,0,1.6-3.6,1.8-9.6,1.8-6.7,0-8.1-.9-11.3-5.2l-17-22.5h-6.8v16.9c0,7.6,4,6.6,4,8.9,0,1.5-1.8,1.9-8.2,1.9h-5.2c-6.5,0-8.2-.4-8.2-1.9,0-2.3,4-1.3,4-8.9V92.4c0-7.6-4-6.6-4-8.9,0-1.5,1.8-1.9,8.2-1.9h9.4c10.9,0,18.4,1.1,23.2,3.2,6.8,3.1,12.2,8.5,12.2,18.3.1,11-5.3,16.5-14.6,20.1" style="fill: #006635"/>
      <path d="M277.5,144.4c1.4,0,1.9.4,1.9,1.8V152c0,1.3-.5,1.8-1.9,1.8H240.9c-6.5,0-8.2-.4-8.2-1.9,0-2.3,4-1.3,4-8.9V92.5c0-7.6-4-6.6-4-8.9,0-1.5,1.8-1.9,8.2-1.9h5.2c6.5,0,8.2.4,8.2,1.9,0,2.3-4,1.3-4,8.9v52.4c2.1-.2,5.5-.4,11.3-.4h15.9Z" style="fill: #006635"/>
      <path d="M308.9,142.9c0,7.6,4,6.6,4,8.9,0,1.5-1.8,1.9-8.2,1.9h-5.2c-6.5,0-8.2-.4-8.2-1.9,0-2.3,4-1.3,4-8.9V92.4c0-7.6-4-6.6-4-8.9,0-1.5,1.8-1.9,8.2-1.9h5.2c6.5,0,8.2.4,8.2,1.9,0,2.3-4,1.3-4,8.9v50.5Z" style="fill: #006635"/>
      <path d="M379.8,129.7V92.4c0-7.6-4-6.6-4-8.9,0-1.5,1.8-1.9,8.2-1.9h2c6.5,0,8.2.4,8.2,1.9,0,2.3-4,1.3-4,8.9v59.2c0,1.5-.7,2.1-4.1,2.1h-.7c-3.1,0-3.5-.4-4.8-2l-33.8-42.9c-1.6-2.1-3.6-4.7-4.8-6.3h-.2v40.4c0,7.6,4,6.6,4,8.9,0,1.5-1.8,1.9-8.2,1.9h-2c-6.5,0-8.2-.4-8.2-1.9,0-2.3,4-1.3,4-8.9V92.4c0-7.6-4-6.6-4-8.9,0-1.5,1.8-1.9,8.2-1.9h.7c5.6,0,6.3,1.1,9.7,5.3l28.8,36.5c1.6,2.1,3.6,4.7,4.8,6.3h.2Z" style="fill: #006635"/>
      <path d="M441.3,90.6c-10.1,0-19.7,8.3-19.7,26.3,0,19.7,8.5,28.1,22.3,28.1a26.88,26.88,0,0,0,10.2-2V129.4c0-4.2-.8-5.5-2.8-7-.9-.7-1.2-1.1-1.2-1.8,0-1.6,2.3-2,8.5-2h1.9c6.2,0,6.8.4,6.8,2.9v22.7a5.22,5.22,0,0,1-3.1,5.2c-6,3.3-13.9,5-21.8,5-23.1,0-34.9-13.9-34.9-36.5,0-22,12.4-37,34.1-37,9,0,16.6,2.3,20.5,5.9a7.39,7.39,0,0,1,2.7,6.2c0,3.6-2,6.8-5,6.8-5.3,0-7.2-9.2-18.5-9.2" style="fill: #006635"/>
    </g>
    <path d="M662,90.6h0V0H518.9V90.6h0a8.13,8.13,0,0,0,0,1.8,46.93,46.93,0,0,0,.8,5.7,47.42,47.42,0,0,0,4.2,11.3c.4.8.9,1.7,1.4,2.6a81.59,81.59,0,0,0,7.4,11c.5.6.9,1.2,1.4,1.8,2.4,2.8,5.1,5.7,8.2,8.7.9.8,1.8,1.6,2.7,2.5,10.5,9.2,25.1,19.2,45.5,29.2,20.4-10,35-20,45.4-29.4.9-.8,1.8-1.7,2.7-2.5,3.1-3,5.8-5.9,8.2-8.7a22,22,0,0,0,1.4-1.8,78.1,78.1,0,0,0,7.4-10.9c.5-.9.9-1.7,1.4-2.6A54.22,54.22,0,0,0,661.2,98a25.22,25.22,0,0,0,.8-5.7A7.4,7.4,0,0,0,662,90.6ZM550.2,135.9a112.42,112.42,0,0,1-13.4-13.3,9.34,9.34,0,0,1,6-2c3.6,0,5.3,1.4,7.2,3s4.3,3.5,8.7,3.5a12.14,12.14,0,0,0,8.7-3.5c1.6-1.3,3-2.5,5.5-2.8v12.7a12.49,12.49,0,0,0-6.9,3.4c-2,1.6-3.7,3-7.2,3s-5.3-1.4-7.2-3A12.13,12.13,0,0,0,550.2,135.9Zm40.3,25.5A216.72,216.72,0,0,1,558.1,142h.6a12.14,12.14,0,0,0,8.7-3.5c1.6-1.3,3-2.5,5.5-2.8V142l.5.3c3.1,2,6.1,1.6,9,1.3,2.6-.3,5.1-.5,7.5,1l.6.4.6-.4c2.4-1.5,4.9-1.3,7.5-1,2.9.3,5.9.6,9-1.3l.5-.3v-6.3a11.1,11.1,0,0,1,5.5,2.8c2,1.6,4.3,3.5,8.7,3.5h.6A221.93,221.93,0,0,1,590.5,161.4Zm-15.4-20.6V118.3h0a11.56,11.56,0,0,0,3.7.7c1.2,0,2.4-.1,3.6-.2,2.4-.3,4.8-.5,7,.7v22.4a12.85,12.85,0,0,0-3.4-.7h-.6c-1.1,0-2.2.1-3.3.2C579.7,141.7,577.3,142,575.1,140.8Zm16.5,1.1V119.5c2.3-1.2,4.6-.9,7-.7a21.74,21.74,0,0,0,3.6.2,9.22,9.22,0,0,0,3.6-.7h0v22.5c-2.3,1.2-4.6.9-7,.7a25.49,25.49,0,0,0-3.9-.2A10,10,0,0,0,591.6,141.9Zm39.1-6-1.2.9c-2,1.6-3.7,3-7.2,3s-5.3-1.4-7.2-3a13.18,13.18,0,0,0-6.9-3.4V120.7a11.1,11.1,0,0,1,5.5,2.8c2,1.6,4.3,3.5,8.7,3.5a12.14,12.14,0,0,0,8.7-3.5c2-1.6,3.7-3,7.2-3a9,9,0,0,1,6,2A133,133,0,0,1,630.7,135.9Zm20.4-22.8a92.91,92.91,0,0,1-5.5,7.8,11.43,11.43,0,0,0-7.4-2.5,12.14,12.14,0,0,0-8.7,3.5c-2,1.6-3.7,3-7.2,3s-5.3-1.4-7.2-3a13.18,13.18,0,0,0-6.9-3.4v-4l-1.1.7-.7.4c-2.4,1.5-4.9,1.3-7.5,1s-5.5-.6-8.4,1c-2.9-1.6-5.7-1.3-8.4-1s-5.1.5-7.5-1l-.7-.4-1.1-.7v4a12.49,12.49,0,0,0-6.9,3.4c-2,1.6-3.7,3-7.2,3s-5.3-1.4-7.2-3-4.3-3.5-8.7-3.5a11.43,11.43,0,0,0-7.4,2.5,74.34,74.34,0,0,1-5.5-7.8,10.54,10.54,0,0,0-.7-1.1,12.93,12.93,0,0,0,6.4-3.3c2-1.6,3.7-3,7.2-3s5.3,1.4,7.2,3,4.3,3.5,8.7,3.5a12.14,12.14,0,0,0,8.7-3.5c2-1.6,3.7-3,7.2-3s5.3,1.4,7.2,3,4.3,3.5,8.7,3.5a12.14,12.14,0,0,0,8.7-3.5c2-1.6,3.7-3,7.2-3s5.3,1.4,7.2,3,4.3,3.5,8.7,3.5a12.14,12.14,0,0,0,8.7-3.5c2-1.6,3.7-3,7.2-3s5.3,1.4,7.2,3a12.93,12.93,0,0,0,6.4,3.3A10.54,10.54,0,0,0,651.1,113.1Zm7.5-22.5v1.7a31.21,31.21,0,0,1-.7,4.7,48.46,48.46,0,0,1-5,12.8c-2.9-.2-4.4-1.5-6.2-2.9-2-1.6-4.3-3.5-8.7-3.5a12.14,12.14,0,0,0-8.7,3.5c-2,1.6-3.7,3-7.2,3s-5.3-1.4-7.2-3-4.3-3.5-8.7-3.5a12.14,12.14,0,0,0-8.7,3.5c-2,1.6-3.7,3-7.2,3s-5.3-1.4-7.2-3-4.3-3.5-8.7-3.5a12.14,12.14,0,0,0-8.7,3.5c-2,1.6-3.7,3-7.2,3s-5.3-1.4-7.2-3-4.3-3.5-8.7-3.5a12.14,12.14,0,0,0-8.7,3.5c-1.8,1.4-3.3,2.7-6.2,2.9a52.29,52.29,0,0,1-5-12.8,31.22,31.22,0,0,1-.7-4.7V83a4.3,4.3,0,1,1,8.6,0V97h12.7V80.2a4.3,4.3,0,1,1,8.6,0V97h12.7V77.4a4.3,4.3,0,1,1,8.6,0V97h12.7V74.5a4.3,4.3,0,1,1,8.6,0V97h13V77.4a4.3,4.3,0,1,1,8.6,0V97h12.7V80.2a4.3,4.3,0,1,1,8.6,0V97h12.7V83a4.3,4.3,0,1,1,8.6,0v7.6Zm0-14a7.79,7.79,0,0,0-4.3-1.3,7.7,7.7,0,0,0-7.7,7.7V93.6h-5.9V80.2a7.7,7.7,0,0,0-15.4,0V93.6h-5.8V77.4a7.7,7.7,0,0,0-15.4,0V93.6h-5.9V74.5a7.7,7.7,0,0,0-15.4,0V93.6h-5.9V77.4a7.7,7.7,0,0,0-15.4,0V93.6h-5.9V80.2a7.7,7.7,0,0,0-15.4,0V93.6h-5.9V83a7.7,7.7,0,0,0-7.7-7.7,7.79,7.79,0,0,0-4.3,1.3V73.1a137.54,137.54,0,0,1,136.4,0v3.5ZM584.1,17.5c.8-.1,1.7-.1,2.6-.2l1.6-.1V14h4.4v3.2l1.6.1a21.12,21.12,0,0,1,2.6.2l1.8.2V14.3c1.5.1,3.1.2,4.7.4v9.5c-4.3-.3-8.6-.5-12.9-.5s-8.6.2-12.9.5V14.7c1.6-.1,3.1-.3,4.7-.4v3.4Zm-5.5,10c4-.3,7.9-.4,11.9-.4s7.9.1,11.8.4l-1.7,3.4,2.6,20.9c-4.2-.4-8.5-.6-12.7-.6h0c-4.2,0-8.5.2-12.7.6l2.6-20.9Zm80,42.3A137.18,137.18,0,0,0,606.7,53l-2.6-21.5,2.7-5.3V11.6l-1.5-.2c-2.7-.3-5.5-.5-8.2-.6l-1.8-.1h-.9c-1.4,0-2.7-.1-3.9-.1s-2.6,0-4,.1h-.9l-1.8.1c-2.7.1-5.4.3-8.2.6l-1.5.2V26.2l2.7,5.3L574.2,53a137.18,137.18,0,0,0-51.9,16.8V3.4H658.6V69.8Z" style="fill: #006635"/>
    <path d="M625.3,41.9c2.6-.3,5.1-.5,7.5,1l.6.4.6-.4c2.4-1.5,4.9-1.3,7.5-1,2.9.3,5.9.6,9-1.3l.5-.3V12.7l-1.7,1.1c-2.4,1.5-4.9,1.3-7.5,1s-5.5-.6-8.4,1c-2.9-1.6-5.7-1.3-8.4-1s-5.1.5-7.5-1l-1.7-1.1V40.2l.5.3C619.4,42.5,622.4,42.2,625.3,41.9Zm9.2-24.2c2.3-1.2,4.6-.9,7-.7a14.69,14.69,0,0,0,7.2-.4V39c-2.3,1.2-4.6.9-7,.7a14.69,14.69,0,0,0-7.2.4ZM618,16.5c2.5,1,4.9.7,7.2.4s4.8-.5,7,.7V40a11.25,11.25,0,0,0-4-.7c-1.1,0-2.2.1-3.3.2-2.4.3-4.8.5-7-.7V16.5Z" style="fill: #006635"/>
    <path d="M620.1,22c1.8,1.1,3.5.9,5.1.8a6.12,6.12,0,0,1,4.2.5c.1.1.2.1.4.1a.71.71,0,0,0,.6-.3.78.78,0,0,0-.2-1c-1.8-1.1-3.5-.9-5.1-.8a6.12,6.12,0,0,1-4.2-.5.78.78,0,0,0-1,.2A.61.61,0,0,0,620.1,22Z" style="fill: #006635"/>
    <path d="M620.1,28.2c1.8,1.1,3.5.9,5.1.8a6.12,6.12,0,0,1,4.2.5c.1.1.2.1.4.1a.71.71,0,0,0,.6-.3.78.78,0,0,0-.2-1c-1.8-1.1-3.5-.9-5.1-.8a6.12,6.12,0,0,1-4.2-.5.78.78,0,0,0-1,.2A.61.61,0,0,0,620.1,28.2Z" style="fill: #006635"/>
    <path d="M625.1,35.2a6.12,6.12,0,0,1,4.2.5c.1.1.2.1.4.1a.71.71,0,0,0,.6-.3.78.78,0,0,0-.2-1c-1.8-1.1-3.5-.9-5.1-.8a6.12,6.12,0,0,1-4.2-.5.72.72,0,1,0-.8,1.2A6.86,6.86,0,0,0,625.1,35.2Z" style="fill: #006635"/>
    <path d="M641.6,35.2a6.8,6.8,0,0,0,5.1-.8.72.72,0,1,0-.8-1.2,6.06,6.06,0,0,1-4.2.5,6.8,6.8,0,0,0-5.1.8.75.75,0,0,0-.2,1,.71.71,0,0,0,.6.3.6.6,0,0,0,.4-.1A6.84,6.84,0,0,1,641.6,35.2Z" style="fill: #006635"/>
    <path d="M637.1,29.7a.6.6,0,0,0,.4-.1,6.06,6.06,0,0,1,4.2-.5,6.8,6.8,0,0,0,5.1-.8.72.72,0,1,0-.8-1.2,6.06,6.06,0,0,1-4.2.5,6.8,6.8,0,0,0-5.1.8.75.75,0,0,0-.2,1A.85.85,0,0,0,637.1,29.7Z" style="fill: #006635"/>
    <path d="M637.1,23.4a.6.6,0,0,0,.4-.1,6.06,6.06,0,0,1,4.2-.5,6.8,6.8,0,0,0,5.1-.8.72.72,0,1,0-.8-1.2,6.06,6.06,0,0,1-4.2.5,6.8,6.8,0,0,0-5.1.8.75.75,0,0,0-.2,1A.6.6,0,0,0,637.1,23.4Z" style="fill: #006635"/>
    <path d="M540,41.9c2.6-.3,5.1-.5,7.5,1l.6.4.6-.4c2.4-1.5,4.9-1.3,7.5-1,2.9.3,5.9.6,9-1.3l.5-.3V12.7L564,13.8c-2.4,1.5-4.9,1.3-7.5,1s-5.5-.6-8.4,1c-2.9-1.6-5.7-1.3-8.4-1s-5.1.5-7.5-1l-1.7-1.1V40.2l.5.3C534.1,42.5,537.1,42.2,540,41.9Zm9.2-24.2c2.3-1.2,4.6-.9,7-.7a14.69,14.69,0,0,0,7.2-.4V39c-2.3,1.2-4.6.9-7,.7a14.69,14.69,0,0,0-7.2.4Zm-16.5-1.2c2.5,1,4.9.7,7.2.4s4.8-.5,7,.7V40a11.25,11.25,0,0,0-4-.7c-1.1,0-2.2.1-3.3.2-2.4.3-4.8.5-7-.7V16.5Z" style="fill: #006635"/>
    <path d="M534.8,22c1.8,1.1,3.5.9,5.1.8a6.12,6.12,0,0,1,4.2.5c.1.1.2.1.4.1a.71.71,0,0,0,.6-.3.78.78,0,0,0-.2-1c-1.8-1.1-3.5-.9-5.1-.8a6.12,6.12,0,0,1-4.2-.5.78.78,0,0,0-1,.2A.61.61,0,0,0,534.8,22Z" style="fill: #006635"/>
    <path d="M534.8,28.2c1.8,1.1,3.5.9,5.1.8a6.12,6.12,0,0,1,4.2.5c.1.1.2.1.4.1a.71.71,0,0,0,.6-.3.78.78,0,0,0-.2-1c-1.8-1.1-3.5-.9-5.1-.8a6.12,6.12,0,0,1-4.2-.5.78.78,0,0,0-1,.2A.61.61,0,0,0,534.8,28.2Z" style="fill: #006635"/>
    <path d="M539.8,35.2a6.12,6.12,0,0,1,4.2.5c.1.1.2.1.4.1a.71.71,0,0,0,.6-.3.78.78,0,0,0-.2-1c-1.8-1.1-3.5-.9-5.1-.8a6.12,6.12,0,0,1-4.2-.5.72.72,0,1,0-.8,1.2A6.86,6.86,0,0,0,539.8,35.2Z" style="fill: #006635"/>
    <path d="M556.3,35.2a6.8,6.8,0,0,0,5.1-.8.72.72,0,1,0-.8-1.2,6.06,6.06,0,0,1-4.2.5,6.8,6.8,0,0,0-5.1.8.75.75,0,0,0-.2,1,.71.71,0,0,0,.6.3.6.6,0,0,0,.4-.1A6.84,6.84,0,0,1,556.3,35.2Z" style="fill: #006635"/>
    <path d="M551.8,29.7a.6.6,0,0,0,.4-.1,6.06,6.06,0,0,1,4.2-.5,6.8,6.8,0,0,0,5.1-.8.72.72,0,1,0-.8-1.2,6.06,6.06,0,0,1-4.2.5,6.8,6.8,0,0,0-5.1.8.75.75,0,0,0-.2,1A.85.85,0,0,0,551.8,29.7Z" style="fill: #006635"/>
    <path d="M551.8,23.4a.6.6,0,0,0,.4-.1,6.06,6.06,0,0,1,4.2-.5,6.8,6.8,0,0,0,5.1-.8.72.72,0,1,0-.8-1.2,6.06,6.06,0,0,1-4.2.5,6.8,6.8,0,0,0-5.1.8.75.75,0,0,0-.2,1A.6.6,0,0,0,551.8,23.4Z" style="fill: #006635"/>
    <path d="M593.9,42.5l-1.3-10.4h-4.2l-1.3,10.4h6.8Z" style="fill: #006635"/>
    <path d="M577.1,123.9c1.8,1.1,3.5.9,5.1.8.3,0,.5-.1.8-.1a5.09,5.09,0,0,1,3.4.6c.1.1.2.1.4.1a.71.71,0,0,0,.6-.3,1.27,1.27,0,0,0,.1-.6c0-.2-.1-.3-.3-.4a4.92,4.92,0,0,0-2.2-.8,9.31,9.31,0,0,0-2.9.1,2,2,0,0,0-.7.1,5.37,5.37,0,0,1-3.5-.6.78.78,0,0,0-1,.2A.67.67,0,0,0,577.1,123.9Z" style="fill: #006635"/>
    <path d="M577.1,130.1c1.8,1.1,3.5.9,5.1.8a6.12,6.12,0,0,1,4.2.5c.1.1.2.1.4.1a.71.71,0,0,0,.6-.3.78.78,0,0,0-.2-1c-1.8-1.1-3.5-.9-5.1-.8a6.12,6.12,0,0,1-4.2-.5.72.72,0,1,0-.8,1.2Z" style="fill: #006635"/>
    <path d="M583.4,137a4.67,4.67,0,0,1,3,.6c.1.1.2.1.4.1a.71.71,0,0,0,.6-.3.78.78,0,0,0-.2-1,3,3,0,0,0-.8-.4,8.12,8.12,0,0,0-4.3-.4h-.3a5.91,5.91,0,0,1-3.9-.6.78.78,0,0,0-1,.2.9.9,0,0,0-.1.5c0,.1,0,.1.1.2s.1.2.3.3a6.53,6.53,0,0,0,2.8.9,15.48,15.48,0,0,0,2.2-.1Z" style="fill: #006635"/>
    <path d="M597.5,137c.4,0,.8.1,1.2.1a8.68,8.68,0,0,0,2.3.1,5.14,5.14,0,0,0,2.8-.9l.3-.3c0-.1,0-.1.1-.2a.9.9,0,0,0-.1-.5.75.75,0,0,0-1-.2,5.81,5.81,0,0,1-3.9.6h-.3a8.12,8.12,0,0,0-4.3.4,3,3,0,0,0-.8.4.75.75,0,0,0-.2,1,.71.71,0,0,0,.6.3.6.6,0,0,0,.4-.1A3.85,3.85,0,0,1,597.5,137Z" style="fill: #006635"/>
    <path d="M594.2,131.5a.6.6,0,0,0,.4-.1,6.06,6.06,0,0,1,4.2-.5,6.8,6.8,0,0,0,5.1-.8.72.72,0,1,0-.8-1.2,6.06,6.06,0,0,1-4.2.5,6.8,6.8,0,0,0-5.1.8.75.75,0,0,0-.2,1A.6.6,0,0,0,594.2,131.5Z" style="fill: #006635"/>
    <path d="M594.2,125.3a.6.6,0,0,0,.4-.1,5.09,5.09,0,0,1,3.4-.6,2.2,2.2,0,0,1,.8.1,6.8,6.8,0,0,0,5.1-.8.72.72,0,1,0-.8-1.2,5.37,5.37,0,0,1-3.5.6,2,2,0,0,1-.7-.1,13.83,13.83,0,0,0-2.9-.1,4.92,4.92,0,0,0-2.2.8.54.54,0,0,0-.3.4,1.27,1.27,0,0,0,.1.6A.55.55,0,0,0,594.2,125.3Z" style="fill: #006635"/>
    <g>
      <path d="M424.4,56.8a14.15,14.15,0,0,1-6.1-1.2,10.93,10.93,0,0,1-6.2-7.5,17.69,17.69,0,0,1-.3-7.6,19.31,19.31,0,0,1,3.3-8.6,16.34,16.34,0,0,1,10.8-7,14.68,14.68,0,0,1,8.3.5,11.32,11.32,0,0,1,7.3,8,16.79,16.79,0,0,1,.4,6.3,22.19,22.19,0,0,1-2.5,8.3,16.73,16.73,0,0,1-13.3,8.7A9.7,9.7,0,0,1,424.4,56.8Zm-5.3-12.2c.1.6.1,1.6.3,2.6a5.41,5.41,0,0,0,2.4,3.8,6.67,6.67,0,0,0,7.4-.5,12,12,0,0,0,3.5-4.6,18.93,18.93,0,0,0,1.7-6.6,14.59,14.59,0,0,0-.2-5.1,6,6,0,0,0-1.8-3.3,6.12,6.12,0,0,0-6.6-.6,9.22,9.22,0,0,0-4.2,4.3C419.8,37.5,419.2,40.7,419.1,44.6Zm38.8-14.9h7.6c.8,0,1-.2,1.2-1a22.31,22.31,0,0,0,.4-2.3c.2-1.1.1-1.3-1.1-1.3h-6.6c-.1,0-.7.1-.9-.3a2.53,2.53,0,0,1,0-1.5c.9-5.3,1.2-6.7,3.2-7.4,2.7-.8,5.8,1,6.6,1.2a.84.84,0,0,0,1.2-.6,20.16,20.16,0,0,0,.7-2.3,1.55,1.55,0,0,0-.8-1.8,6.12,6.12,0,0,0-1.2-.5,14.7,14.7,0,0,0-8.6-.4,10.06,10.06,0,0,0-4.4,2.5c-2.6,2.4-2.9,4.6-3.6,9.2a18.27,18.27,0,0,1-.3,1.9H447a1,1,0,0,0-.8.7c-.2,1.1-.4,2.1-.6,3.2-.1.5.1.7.6.7.3,0,.5.1.8.1h4.8" style="fill: #006635"/>
      <path d="M458,29.5c-.9,12.3-2.2,21.5-2.8,24.8a20.14,20.14,0,0,1-1.7,5.6,14,14,0,0,1-1.8,3c-1.9,2.4-7.1,4.1-9.9,3.7-.5-.1-1.3-.1-1.6-.9a1.69,1.69,0,0,1,.1-1.4c.8-1.2,2.6-.4,4-.7,3.3-.8,4.2-8.3,4.4-10.2q1.35-12,2.4-24.6Z" style="fill: #006635"/>
    </g>
    <g>
      <path d="M7.6,11.5c3.9,0,4.2.2,4.2,1.8V41.6c0,3.7.4,5.9,2.1,7.2,1.5,1.2,3.8,1.8,7,1.8s5.2-.6,6.6-1.8c1.8-1.5,2.3-3.7,2.3-7.2V13.3c0-1.6.2-1.8,4.1-1.8s4.1.2,4.1,1.8V42.2c0,4.4-.9,7.8-3.7,10.5-3,2.8-7.3,4.1-13.3,4.1-6.2,0-10.8-1.3-13.7-4s-4-6.4-4-10.6v-24c0-4.8-2.5-4.1-2.5-5.6,0-1,1.1-1.2,5.1-1.2H7.6Z" style="fill: #006635"/>
      <path d="M81.2,41.5V18.2c0-4.8-2.5-4.1-2.5-5.6,0-1,1.1-1.2,5.1-1.2H85c4,0,5.1.2,5.1,1.2,0,1.5-2.5.8-2.5,5.6V55.1c0,1-.4,1.3-2.6,1.3h-.4c-1.9,0-2.2-.2-3-1.2L60.5,28.5c-1-1.3-2.3-2.9-3-4h0V49.7c0,4.8,2.5,4.1,2.5,5.6,0,1-1.1,1.2-5.1,1.2H53.7c-4,0-5.1-.2-5.1-1.2,0-1.5,2.5-.8,2.5-5.6V18.2c0-4.8-2.5-4.1-2.5-5.6,0-1,1.1-1.2,5.1-1.2h.4c3.5,0,4,.7,6.1,3.3L78.1,37.5c1,1.3,2.3,2.9,3,4Z" style="fill: #006635"/>
      <path d="M110.4,49.7c0,4.8,2.5,4.1,2.5,5.6,0,1-1.1,1.2-5.1,1.2h-3.3c-4,0-5.1-.2-5.1-1.2,0-1.5,2.5-.8,2.5-5.6V18.2c0-4.8-2.5-4.1-2.5-5.6,0-1,1.1-1.2,5.1-1.2h3.2c4,0,5.1.2,5.1,1.2,0,1.5-2.5.8-2.5,5.6V49.7Z" style="fill: #006635"/>
      <path d="M153.1,19a7.8,7.8,0,0,0,.7-2.6,3.28,3.28,0,0,0-1.2-2.4c-.6-.5-.8-.8-.8-1.2,0-1.1,1-1.2,6.3-1.2s6.3.1,6.3,1.2c0,.4-.2.7-.7,1.1A10.41,10.41,0,0,0,160,19L146.4,54.7c-.6,1.6-1.3,1.8-2.4,1.8h-1.2c-1.1,0-1.8-.2-2.4-1.8L125.5,17.9a7.52,7.52,0,0,0-4-4.2,1.07,1.07,0,0,1-.7-1c0-1.1,2.3-1.2,5.9-1.2,4.8,0,5.9.6,7.4,4.5l6.1,15.5c1.1,2.7,3.1,7.9,4.4,11.2h.1c1.4-4.1,2.4-7,4-11.2Z" style="fill: #006635"/>
      <path d="M183,50.9c1.3-.1,3.4-.2,7-.2h11.6c.9,0,1.2.2,1.2,1.1v3.6c0,.8-.3,1.1-1.2,1.1H177.1c-4,0-5.1-.2-5.1-1.2,0-1.5,2.5-.8,2.5-5.6V18.2c0-4.8-2.5-4.1-2.5-5.6,0-1,1.1-1.2,5.1-1.2h23.8c.9,0,1.2.2,1.2,1.1v3.6c0,.8-.3,1.1-1.2,1.1H190c-3.6,0-5.7-.1-7-.2V30.3h14.7c.9,0,1.2.2,1.2,1.1v3.4c0,.8-.3,1.1-1.2,1.1H183Z" style="fill: #006635"/>
      <path d="M234.9,37.4l9.7,12.8a15.42,15.42,0,0,0,4.6,4.2c.4.3.6.5.6.9,0,1-2.3,1.1-6,1.1-4.2,0-5.1-.6-7-3.2l-10.6-14H222V49.7c0,4.8,2.5,4.1,2.5,5.6,0,1-1.1,1.2-5.1,1.2h-3.2c-4,0-5.1-.2-5.1-1.2,0-1.5,2.5-.8,2.5-5.6V18.2c0-4.8-2.5-4.1-2.5-5.6,0-1,1.1-1.2,5.1-1.2h5.9c6.8,0,11.5.7,14.5,2,4.2,1.9,7.6,5.3,7.6,11.4C244.1,31.8,240.7,35.2,234.9,37.4ZM224.4,16.8H222V34c10.1,0,13.3-3.3,13.3-8.9C235.3,18.5,230.8,16.8,224.4,16.8Z" style="fill: #006635"/>
      <path d="M256.3,22.2c0-6.3,5.9-11.1,15-11.1,4.4,0,9,1.2,11.7,3.6a4.3,4.3,0,0,1,1.5,3.6c0,2.1-1.2,4.2-2.9,4.2-1.1,0-2-.9-3.1-1.9a12.31,12.31,0,0,0-8.1-3.5c-3.2,0-5.6,1.5-5.6,4.2,0,8.8,21.5,7.9,21.5,22.4a12.2,12.2,0,0,1-3.7,9.1c-2.9,2.9-7.7,4.2-12.4,4.2s-9.4-1.2-12.7-3.8a4.24,4.24,0,0,1-1.7-3.7c0-2,1.2-4.2,3-4.2,2.6,0,4.6,5.7,11.9,5.7,3.8,0,7.1-2,7.1-6.4C277.8,34.8,256.3,36.1,256.3,22.2Z" style="fill: #006635"/>
      <path d="M305,49.7c0,4.8,2.5,4.1,2.5,5.6,0,1-1.1,1.2-5.1,1.2h-3.2c-4,0-5.1-.2-5.1-1.2,0-1.5,2.5-.8,2.5-5.6V18.2c0-4.8-2.5-4.1-2.5-5.6,0-1,1.1-1.2,5.1-1.2h3.2c4,0,5.1.2,5.1,1.2,0,1.5-2.5.8-2.5,5.6Z" style="fill: #006635"/>
      <path d="M350,11.5c.9,0,1.2.2,1.2,1.1v3.6c0,.8-.3,1.1-1.2,1.1h-5.5c-3.6,0-5.7-.1-7-.2V49.8c0,4.8,2.5,4.1,2.5,5.6,0,1-1.1,1.2-5.1,1.2h-3.2c-4,0-5.1-.2-5.1-1.2,0-1.5,2.5-.8,2.5-5.6V17.1c-1.3.1-3.4.2-7,.2h-5.5c-.9,0-1.2-.3-1.2-1.1V12.6c0-.9.3-1.1,1.2-1.1Z" style="fill: #006635"/>
      <path d="M399.6,12.7c0,.4-.2.7-.7,1.1a14.43,14.43,0,0,0-4,5.1l-11.8,23v7.8c0,4.8,2.5,4.1,2.5,5.6,0,1-1.1,1.2-5.1,1.2h-3.2c-4,0-5.1-.2-5.1-1.2,0-1.5,2.5-.8,2.5-5.6V41.8L362.5,17.9a8.64,8.64,0,0,0-4-4.2,1.07,1.07,0,0,1-.7-1c0-1.1,2.2-1.2,5.9-1.2,4.8,0,5.9.8,7.7,4.5l3.5,7c1.8,3.5,3.7,7.5,5.4,11.1h.1c1.5-3.2,3.4-7,5.6-11.1l2.1-4.1a6.31,6.31,0,0,0,.8-2.6,3.28,3.28,0,0,0-1.2-2.4c-.6-.5-.8-.8-.8-1.2,0-1.1,1-1.2,6.4-1.2C398.4,11.5,399.6,11.7,399.6,12.7Z" style="fill: #006635"/>
    </g>
  </g>
</svg>