<?xml version="1.0" encoding="utf-8"?>
<!-- Generator: Adobe Illustrator 22.1.0, SVG Export Plug-In . SVG Version: 6.00 Build 0)  -->
<svg version="1.1" id="Logo" xmlns="http://www.w3.org/2000/svg" xmlns:xlink="http://www.w3.org/1999/xlink" x="0px" y="0px"
	 viewBox="0 0 379.5 78.8" style="enable-background:new 0 0 379.5 78.8;" xml:space="preserve">
<style type="text/css">
	.st0{fill:#ABD3F1;}
	.st1{fill:#963594;}
	.st2{fill:#5B1D57;}
	.st3{fill:url(#SVGID_1_);}
	.st4{fill:url(#SVGID_2_);}
	.st5{fill:url(#SVGID_3_);}
	.st6{fill:none;stroke:#000000;stroke-miterlimit:10;}
</style>
<path class="st0" d="M56.5,40c0,15.6-12.7,28.3-28.5,28.3V11.7C43.8,11.7,56.5,24.4,56.5,40z"/>
<path class="st1" d="M0,40c0-15.6,12.6-28.3,28-28.3v56.6C12.6,68.3,0,55.6,0,40z"/>
<path class="st2" d="M28.1,62c-12.1,0-22-9.8-22-22s9.8-22,22-22V62z"/>
<linearGradient id="SVGID_1_" gradientUnits="userSpaceOnUse" x1="39" y1="18.7717" x2="39" y2="62.6717" gradientTransform="matrix(1 0 0 -1 0 80.7717)">
	<stop  offset="0" style="stop-color:#9FCEEF"/>
	<stop  offset="1" style="stop-color:#53B2E5"/>
</linearGradient>
<path class="st3" d="M50,40c0,12.1-9.8,22-22,22V18.1C40.2,18.1,50,27.9,50,40z"/>
<linearGradient id="SVGID_2_" gradientUnits="userSpaceOnUse" x1="21.2" y1="62.6717" x2="21.2" y2="18.7717" gradientTransform="matrix(1 0 0 -1 0 80.7717)">
	<stop  offset="0" style="stop-color:#C2E8F8"/>
	<stop  offset="1" style="stop-color:#24ABE2"/>
</linearGradient>
<path class="st4" d="M28,62c-7.5,0-13.6-9.8-13.6-22S20.5,18.1,28,18.1V62z"/>
<radialGradient id="SVGID_3_" cx="30.7477" cy="45.9146" r="13.1784" gradientTransform="matrix(1 0 0 -1 0 80.7717)" gradientUnits="userSpaceOnUse">
	<stop  offset="0.1399" style="stop-color:#FFFFFF"/>
	<stop  offset="1" style="stop-color:#FFF200"/>
</radialGradient>
<path class="st5" d="M28.3,24.7c-0.4,0-0.7,0.1-1,0.2c-5,0.6-9,7.2-9,15.2c0,8.4,4.4,15.3,9.8,15.3l0,0c0.1,0-0.1,0,0,0
	c8.5,0,15.5-6.9,15.5-15.3S36.7,24.7,28.3,24.7z"/>
<g>
	<path d="M100.1,26.3l-3.7,6.4c-2-1.9-4.7-2.8-8.1-2.8c-3.2,0-5.8,1.1-7.7,3.2c-1.9,2.1-2.8,5.1-2.8,8.9c0,7.7,3.7,11.5,11,11.5
		c3.2,0,5.9-1,8.4-3.1l3.1,6.7c-2.5,1.5-4.6,2.5-6.5,2.9s-4,0.6-6.6,0.6c-5.6,0-10.1-1.6-13.4-4.9s-4.9-7.9-4.9-13.7
		s1.8-10.4,5.4-14c3.6-3.5,8.4-5.3,14.6-5.3C93.3,22.7,97,23.9,100.1,26.3z"/>
	<path d="M104.8,41.6c0-5.6,1.6-10.1,4.8-13.6c3.2-3.5,7.5-5.3,12.7-5.3c5.6,0,9.9,1.7,12.9,5.1s4.6,8,4.6,13.8s-1.6,10.5-4.7,13.9
		s-7.4,5.2-12.8,5.2c-5.6,0-9.9-1.7-13-5.2C106.4,52,104.8,47.3,104.8,41.6z M113.7,41.6c0,8.1,2.9,12.1,8.7,12.1
		c2.7,0,4.8-1,6.3-3.1c1.6-2.1,2.3-5.1,2.3-8.9c0-7.9-2.9-11.9-8.7-11.9c-2.7,0-4.8,1-6.3,3.1C114.5,34.9,113.7,37.8,113.7,41.6z"/>
	<path d="M170.3,59.9v-2.2c-0.7,0.8-1.9,1.5-3.6,2c-1.7,0.6-3.4,0.9-5.2,0.9c-5.1,0-9.1-1.6-12-4.8s-4.4-7.7-4.4-13.5
		s1.7-10.5,5-14.1c3.4-3.6,7.6-5.4,12.6-5.4c2.8,0,5.3,0.6,7.6,1.7V9.8l8.5-2V60L170.3,59.9L170.3,59.9z M170.3,32.1
		c-1.8-1.5-3.7-2.2-5.7-2.2c-3.4,0-6,1-7.9,3.1s-2.8,5.1-2.8,9c0,7.6,3.7,11.4,11,11.4c0.8,0,1.8-0.2,3-0.7s2-1,2.3-1.5L170.3,32.1
		L170.3,32.1z"/>
	<path d="M220,44.3h-26.1c0.2,2.9,1.2,5.2,3,6.8s4.3,2.4,7.4,2.4c3.9,0,6.8-1,8.9-3l3.3,6.5c-3,2.4-7.5,3.7-13.4,3.7
		c-5.6,0-10-1.6-13.2-4.9c-3.2-3.3-4.9-7.8-4.9-13.7c0-5.8,1.8-10.4,5.3-14c3.6-3.6,7.8-5.4,12.8-5.4c5.3,0,9.6,1.6,12.8,4.7
		c3.2,3.2,4.8,7.2,4.8,12.1C220.7,40.6,220.5,42.2,220,44.3z M194.2,37.9h18c-0.6-5.3-3.5-8-8.9-8C198.4,29.8,195.4,32.5,194.2,37.9
		z"/>
	<path d="M235.4,59v15.3h-8.5V23.4h8.5v2.5c2.1-2.1,4.8-3.1,7.9-3.1c11.6,0,17.5,6.4,17.5,19.2c0,6-1.6,10.6-4.8,13.8
		s-7.6,4.8-13.2,4.8C240,60.6,237.6,60.1,235.4,59z M235.4,32.3v19.2c1.5,1.3,3.4,1.9,5.4,1.9c3.9,0,6.8-0.9,8.5-2.8
		c1.7-1.9,2.6-4.8,2.6-8.9c0-4.3-0.9-7.4-2.6-9.1c-1.7-1.8-4.5-2.6-8.5-2.6C238.8,29.9,237,30.7,235.4,32.3z"/>
	<path d="M269.7,9.8l8.5-2v41.1c0,4.5,1.3,7.2,4,8.1c-1.3,2.5-3.6,3.8-6.8,3.8c-3.9,0-5.8-2.7-5.8-8.1L269.7,9.8L269.7,9.8z"/>
	<path d="M309.2,56.3c-0.8,1.3-2.1,2.3-4,3.1s-3.9,1.2-6,1.2c-3.9,0-7-1-9.3-3s-3.4-4.8-3.4-8.4c0-4.2,1.6-7.5,4.8-9.9
		s7.7-3.6,13.5-3.6c1,0,2.2,0.2,3.5,0.5c0-4.3-2.7-6.5-8.2-6.5c-3.2,0-5.9,0.5-8.1,1.6l-1.8-6.6c2.9-1.4,6.4-2.1,10.5-2.1
		c5.6,0,9.7,1.3,12.3,3.8c2.6,2.5,3.9,7.3,3.9,14.4v7.8c0,4.9,1,7.9,2.9,9.2c-0.7,1.2-1.5,2-2.4,2.3s-1.9,0.4-3,0.4
		c-1.2,0-2.3-0.5-3.3-1.4S309.5,57.4,309.2,56.3z M308.4,42.7c-1.5-0.3-2.5-0.4-3.3-0.4c-6.7,0-10.1,2.2-10.1,6.6
		c0,3.3,1.9,4.9,5.7,4.9c5.1,0,7.7-2.6,7.7-7.7L308.4,42.7L308.4,42.7z"/>
	<path d="M342.3,65.8c-0.9,2.4-2.9,4.5-5.9,6.1s-6.5,2.4-10.5,2.4v-7.5c6.6,0,9.9-1.7,9.9-4.9c0-2.2-0.9-5.5-2.7-10l-11.4-28.4h8.8
		l10,25.3l9-25.3h8.8L342.3,65.8z"/>
</g>
<g id="Hand">
	<circle class="st6" cx="372.4" cy="16.3" r="6.6"/>
	<path d="M374.2,19.2c0,0,0.9-0.7,1.1-0.8c0,0,0.9-0.5,0.9-0.6c0,0,0.5-0.2,0.2-0.6c0,0-0.5-0.5-1.4,0.3c0,0-0.2,0.2-0.3,0.2
		c0,0-0.8,0.6-0.9,0.5c0,0-0.3-0.5,0-0.9c0,0,0.4-0.6,0.4-0.7c0,0,0.1-0.2,0.3-0.3c0,0,0.4-0.5,0.5-0.6c0,0,0.6-0.8,0.6-0.9
		c0,0,0.1-0.2,0.2-0.3c0,0,0.6-0.9,0.3-1.1c0,0-0.3-0.5-0.8,0.3l-0.2,0.3c0,0-0.2,0.3-0.3,0.4c0,0-0.4,0.4-0.5,0.6
		c0,0-0.5,0.5-0.6,0.7c0,0-0.2,0.2-0.3,0.2c0,0-0.2,0.1,0.1-0.3c0,0,0.5-0.8,0.5-0.9c0,0,0.6-1,0.5-1.1l0.4-0.8c0,0,0.3-0.5-0.2-0.7
		c0,0-0.4,0-0.6,0.6l-0.4,0.7c0,0-0.5,0.7-0.5,0.8c0,0-0.7,1-0.8,1.2c0,0-0.3,0.2-0.1-0.3c0,0,0.2-0.6,0.2-0.9c0,0,0.3-0.7,0.2-0.8
		c0,0,0.2-0.2,0.2-0.4c0,0,0.6-0.8,0.2-1c0,0-0.3-0.3-0.7,0.3c0,0-0.3,0.5-0.3,0.7c0,0-0.6,1-0.6,1.2c0,0-0.4,1.2-0.5,1.2
		c0,0-0.4,0.1-0.3-0.3c0,0,0-0.3,0-0.5c0,0,0-0.6,0-0.8c0,0,0-0.4,0.1-0.6c0,0,0.2-0.8-0.1-0.9c0,0-0.5-0.2-0.6,1.1
		c0,0-0.1,0.8-0.1,1c0,0-0.1,1.1-0.1,1.3c0,0-0.5,1.7-0.6,1.7c0,0-0.1,0.8-0.1,1.4c0,0,0.1,0.8,1,1.1l0.5,0.4c0,0,0.9,0.4,1.4,0.1
		C371.8,20.5,373.4,20,374.2,19.2z"/>
</g>
</svg>
