<?xml version="1.0" encoding="UTF-8" standalone="no"?>
<!-- Created with Inkscape (http://www.inkscape.org/) -->

<svg
   width="48.568348mm"
   height="17.190269mm"
   viewBox="0 0 48.568348 17.19027"
   version="1.1"
   id="svg5"
   inkscape:version="1.1.1 (3bf5ae0d25, 2021-09-20, custom)"
   sodipodi:docname="spli-logo.svg"
   xmlns:inkscape="http://www.inkscape.org/namespaces/inkscape"
   xmlns:sodipodi="http://sodipodi.sourceforge.net/DTD/sodipodi-0.dtd"
   xmlns="http://www.w3.org/2000/svg"
   xmlns:svg="http://www.w3.org/2000/svg">
  <sodipodi:namedview
     id="namedview7"
     pagecolor="#ffffff"
     bordercolor="#666666"
     borderopacity="1.0"
     inkscape:pageshadow="2"
     inkscape:pageopacity="0.0"
     inkscape:pagecheckerboard="0"
     inkscape:document-units="mm"
     showgrid="false"
     inkscape:zoom="2.222073"
     inkscape:cx="195.98816"
     inkscape:cy="62.10417"
     inkscape:window-width="1920"
     inkscape:window-height="1011"
     inkscape:window-x="0"
     inkscape:window-y="0"
     inkscape:window-maximized="1"
     inkscape:current-layer="g152427" />
  <defs
     id="defs2">
    <rect
       x="98.349411"
       y="32.921001"
       width="284.11877"
       height="98.689781"
       id="rect4191" />
  </defs>
  <g
     inkscape:label="Layer 1"
     inkscape:groupmode="layer"
     id="layer1"
     transform="translate(-1.100714,-1.0652335)">
    <g
       id="g152427"
       transform="translate(-7.2558583,-10.546111)">
      <g
         aria-label="SPLI"
         transform="matrix(0.26458333,0,0,0.26458333,-4.6235189,2.064939)"
         id="text4189"
         style="font-size:64px;line-height:1.25;white-space:pre;shape-inside:url(#rect4191);fill:#333333">
        <path
           d="m 130.34961,58.963027 c 0,0 -2.56,0 -2.56,0 0,-5.056 -5.312,-8.96 -11.52,-8.96 -6.208,0 -11.52,3.904 -11.52,8.96 0,8.896 26.944,8.896 26.88,20.48 0,6.016 -6.72,11.52 -15.36,11.52 -8.768,0 -15.36,-5.44 -15.36,-11.52 0,0 2.56,0 2.56,0 0,5.056 5.952,8.96 12.8,8.96 6.72,0 12.8,-3.968 12.8,-8.96 0,-9.088 -26.816,-8.96 -26.88,-20.48 0,-6.208 6.08,-11.52 14.08,-11.52 8,0 14.08,5.312 14.08,11.52 z"
           style="font-family:'Modern Sans';-inkscape-font-specification:'Modern Sans'"
           id="path10214" />
        <path
           d="m 143.14958,67.987027 c 5.568,0 11.072,-0.064 16.64,-0.064 5.568,0 10.24,-3.904 10.24,-8.896 0,-5.056 -4.672,-9.024 -10.24,-9.024 0,0 -16.64,0 -16.64,0 0,0 0,17.984 0,17.984 z m 0,2.496 c 0,0 0,19.2 0,19.2 0,0 0,1.28 0,1.28 0,0 -2.56,0 -2.56,0 0,0 0,-1.28 0,-1.28 0,0 0.064,-40.896 0.064,-40.896 0,0 0,-1.28 0,-1.28 0,0 1.28,0 1.28,0 0,0 17.856,-0.064 17.856,-0.064 7.104,0 12.8,5.248 12.8,11.584 0,6.272 -5.696,11.456 -12.8,11.456 0,0 -16.64,0 -16.64,0 z"
           style="font-family:'Modern Sans';-inkscape-font-specification:'Modern Sans'"
           id="path10216" />
        <path
           d="m 181.54954,48.723027 c 0,0 0,-1.28 0,-1.28 0,0 2.56,0 2.56,0 0,0 0,1.28 0,1.28 0,0 0,39.68 0,39.68 0,0 21.76,0 21.76,0 0,0 1.28,0 1.28,0 0,0 0,2.56 0,2.56 0,0 -1.28,0 -1.28,0 0,0 -23.04,0 -23.04,0 0,0 -1.28,0 -1.28,0 0,0 0,-1.28 0,-1.28 0,0 0,-40.96 0,-40.96 z"
           style="font-family:'Modern Sans';-inkscape-font-specification:'Modern Sans'"
           id="path10218" />
        <path
           d="m 214.89357,48.723027 c 0,0 0,-1.28 0,-1.28 0,0 2.56,0 2.56,0 0,0 0,1.28 0,1.28 0,0 0,40.96 0,40.96 0,0 0,1.28 0,1.28 0,0 -2.56,0 -2.56,0 0,0 0,-1.28 0,-1.28 0,0 0,-40.96 0,-40.96 z"
           style="font-family:'Modern Sans';-inkscape-font-specification:'Modern Sans'"
           id="path10220" />
      </g>
      <rect
         id="rect14981"
         width="10.356768"
         height="16.688095"
         x="8.6076593"
         y="11.862432"
         style="fill:#0065bd;fill-opacity:1;stroke:#333333;stroke-width:0.506;stroke-miterlimit:4;stroke-dasharray:none;stroke-opacity:1" />
      <g
         aria-label="λ"
         transform="scale(0.98487606,1.0153562)"
         id="text30610"
         style="font-size:21.8546px;line-height:1.25;stroke-width:0.256109">
        <path
           d="m 9.0032803,27.865593 h 1.9669137 l 2.950371,-8.545149 3.081499,8.545149 h 2.010623 L 13.155654,11.933589 h -1.988768 l 1.792077,4.808012 z"
           style="font-family:'Standard Symbols PS';-inkscape-font-specification:'Standard Symbols PS';fill:#ffffff"
           id="path10453" />
      </g>
    </g>
  </g>
</svg>
